<?xml version="1.0" encoding="UTF-8"?>
<svg id="Layer_1" data-name="Layer 1" xmlns="http://www.w3.org/2000/svg" viewBox="0 0 94.79 94.79">
  <defs>
    <style>
      .cls-1 {
        fill: none;
        stroke: #231f20;
        stroke-miterlimit: 10;
      }

      .cls-2 {
        fill: #231f20;
      }
    </style>
  </defs>
  <rect class="cls-1" x=".5" y=".5" width="93.79" height="93.79"/>
  <g>
    <path class="cls-2" d="M9.03,45.62c0-1.32,.25-2.56,.75-3.74,.5-1.18,1.2-2.22,2.09-3.13,.89-.91,1.93-1.62,3.11-2.15s2.44-.78,3.8-.78,2.59,.26,3.77,.78,2.22,1.23,3.13,2.15c.91,.91,1.62,1.95,2.13,3.13,.51,1.18,.77,2.43,.77,3.74s-.26,2.62-.77,3.8c-.51,1.18-1.22,2.21-2.13,3.11-.91,.89-1.95,1.59-3.13,2.09-1.18,.5-2.44,.75-3.77,.75s-2.62-.25-3.8-.75c-1.18-.5-2.21-1.2-3.11-2.09-.89-.89-1.59-1.93-2.09-3.11-.5-1.18-.75-2.44-.75-3.8Zm3.9,0c0,.85,.15,1.64,.45,2.38,.3,.74,.73,1.39,1.27,1.95,.55,.56,1.18,1,1.9,1.31,.72,.31,1.5,.47,2.35,.47s1.57-.16,2.27-.47,1.31-.75,1.83-1.31c.52-.56,.93-1.21,1.22-1.95,.29-.74,.44-1.53,.44-2.38s-.15-1.67-.46-2.42c-.3-.75-.72-1.4-1.25-1.96-.53-.56-1.15-1-1.86-1.31-.71-.31-1.48-.47-2.31-.47s-1.6,.16-2.31,.47c-.71,.31-1.33,.75-1.87,1.31-.54,.56-.95,1.22-1.25,1.96-.29,.75-.44,1.55-.44,2.42Z"/>
    <path class="cls-2" d="M32.36,55.16v-19.14h5.72c1.92,0,3.56,.29,4.91,.86,1.35,.57,2.44,1.33,3.26,2.29,.82,.95,1.43,2.02,1.81,3.2s.57,2.37,.57,3.56c0,1.42-.26,2.7-.77,3.83s-1.21,2.11-2.09,2.91c-.88,.81-1.91,1.42-3.07,1.85-1.16,.43-2.39,.64-3.69,.64h-6.66Zm3.77-3.64h2.24c.95,0,1.82-.13,2.6-.38,.78-.25,1.45-.62,2.01-1.1,.56-.48,1-1.1,1.3-1.83,.3-.74,.46-1.58,.46-2.54,0-1.25-.2-2.27-.61-3.05-.41-.79-.91-1.4-1.51-1.83-.6-.43-1.21-.73-1.83-.9-.62-.16-1.15-.25-1.59-.25h-3.07v11.88Z"/>
    <path class="cls-2" d="M58.02,36.02c1.99,0,3.58,.4,4.76,1.21,1.18,.81,1.77,2.01,1.77,3.6,0,1.18-.29,2.16-.87,2.95-.58,.79-1.37,1.38-2.37,1.77-1,.39-2.14,.58-3.42,.58l-.6-2.03c1.58,0,2.98,.22,4.2,.65,1.22,.43,2.19,1.05,2.9,1.86,.71,.81,1.07,1.77,1.07,2.9,0,1.04-.19,1.92-.56,2.64-.37,.72-.88,1.3-1.51,1.74-.63,.44-1.35,.76-2.15,.96-.8,.2-1.62,.3-2.47,.3h-6.37v-19.14h5.62Zm.44,7.83c.75,0,1.3-.23,1.65-.68,.35-.45,.53-.96,.53-1.53,0-.66-.22-1.15-.66-1.48-.44-.33-1.04-.49-1.78-.49h-2.03v4.19h2.29Zm.13,7.8c.55,0,1.06-.07,1.51-.22,.45-.15,.81-.38,1.07-.7,.26-.32,.39-.72,.39-1.21,0-.55-.16-.98-.47-1.26-.31-.29-.71-.49-1.21-.6-.49-.11-1.01-.17-1.55-.17h-2.16v4.16h2.42Z"/>
    <path class="cls-2" d="M84.75,53.23c-.23,.24-.58,.49-1.07,.74-.49,.25-1.04,.48-1.68,.69-.63,.21-1.28,.38-1.94,.51-.66,.13-1.28,.19-1.87,.19-1.56,0-2.96-.23-4.21-.69-1.25-.46-2.31-1.1-3.2-1.92-.88-.82-1.56-1.8-2.03-2.93-.47-1.13-.7-2.36-.7-3.69,0-1.75,.26-3.27,.79-4.56,.53-1.29,1.25-2.37,2.16-3.22s1.96-1.5,3.15-1.91c1.19-.42,2.43-.62,3.73-.62,1.23,0,2.36,.13,3.38,.4,1.02,.27,1.89,.6,2.6,1l-1.22,3.51c-.31-.17-.73-.35-1.25-.52-.52-.17-1.05-.32-1.59-.43s-1.01-.17-1.43-.17c-1.04,0-1.96,.13-2.76,.39-.8,.26-1.47,.65-2.02,1.17s-.96,1.17-1.23,1.94c-.28,.77-.42,1.67-.42,2.69,0,.9,.16,1.71,.47,2.43,.31,.72,.75,1.33,1.31,1.83,.56,.5,1.23,.88,2,1.14,.77,.26,1.62,.39,2.56,.39,.54,0,1.03-.04,1.48-.12,.45-.08,.83-.2,1.14-.38v-2.31h-3.3v-3.64h7.12v8.09Z"/>
  </g>
</svg>